<?xml version="1.0" encoding="UTF-8"?>
<svg id="Layer_2" data-name="Layer 2" xmlns="http://www.w3.org/2000/svg" viewBox="0 0 823.38 453.24">
  <defs>
    <style>
      .cls-1 {
        fill: #bf8f77;
      }

      .cls-2 {
        fill: #c29279;
      }

      .cls-3 {
        fill: #bc8c74;
      }

      .cls-4 {
        fill: #f1f0f0;
      }
    </style>
  </defs>
  <g id="Layer_1-2" data-name="Layer 1">
    <g>
      <path class="cls-1" d="M376.32,256.62c-.22-4.33-2.2-9.27-2.04-13.46-4.98.24-5.14,4.54-10.5,5.04-5.99.56-6.66-2.4-9.18-2.85-1.72-.31-5.21,3.78-6.25.19-1.48-5.11,12.45-23.78,10.93-30.38-.67-2.9-4.61-5.6-6.71-7.39-13.72-11.69-30.49-20.48-47.92-25.13-5.86-1.57-11.86-2.54-17.77-3.91-2.25-.53-4.49-1.11-6.72-1.75-3.96-1.14,2.17-2.46,3.52-2.78,3.81-.92,7.61-1.84,11.42-2.76,4.46-1.08,8.93-2.16,13.29-3.58,8.2-2.68,15.35-6.79,22.69-11.2,8.43-5.58,16.18-12.64,21.2-21.5-3.11-.18-8.34-1-10.5-1h-54c-1.9,0-6.49.87-9.5,1-11.12,32.08-45.9,37.48-76,35-2.78,11.54-5.53,19.06-9.73,29.77-13.98,35.6-26.67,74.62-46.46,107.54-3.75,6.23-10.38,19.9-18.81,15.69-1.04,8.87-3.74,19.14-11,25-1.65,1.33-3.99,2.35-6,3-1.81.59-3.79.88-5.65,1.25-1.91.38-3.82.72-5.75,1.01-3.74.57-7.52,1-11.29,1.25-.44.03-3.21.22-3.3-.51.35,2.86-1.06,6.94.99,9,.77.78,1.3,1.1,2.42,1.05,7.66-.29,15.32-.51,22.99-.58,7.73-.08,15.46-.06,23.19.03,7.77.08,15.54.23,23.31.4,7.78.17,15.56.36,23.34.53,7.77.17,15.54.32,23.31.42,7.73.09,15.46.12,23.19.06,7.67-.07,15.33-.24,23-.55,3.53-.14,7.07-.31,10.6-.52,64.94-3.84,119.4-35.27,115.69-107.38ZM294.39,293.1c-1.78,8.71-4.84,17.21-9.42,24.85-2.26,3.77-4.82,7.37-7.77,10.63-3,3.33-6.37,5.96-10.05,8.45-3.2,2.15-6.52,4.18-10.15,5.53-3.77,1.4-7.84,2.04-11.78,2.83-4.25.86-8.76,1.76-13.12,1.76-7.29.43-15.55-.02-21.73-4.36-1.8-1.25-3.35-2.84-4.54-4.68-1.52-2.35-4.55-11.96-4.55-14.45v-136.5c8.94.47,18.26-1.09,27,1-7.15,14.23-21.33,41.71-25.53,55.97-.4,1.35-.65,2.62-.47,4.02,6.77,1.37,8.57-6.48,12.49-11,1.52-1.76,9.84-10.33,11.16-10.84.66-.25,2.29-.6,2.36.36.88,6.17-5.39,18.51,5.22,17.31,3.07-.34,13.75-6.12,15.27-8.82,3.72-6.58-6.38.57-7.81,1.18-12.36,5.24-2.57-6.94-6.63-13.74-3.85-6.45-11.67,1.28-16.04,3.07,5.39-12.26,12.3-23.94,16.98-36.51,10.65.39,22.18,5.14,31,11,2.19,1.46,7.28,5.25,9,7,1.96,1.99,7.53,9.5,9,12,1.94,3.3,4.58,10.19,6,14-4.64,5.05-20.56,16.45-26.03,8.53-3.36-4.89,3.75-2.44,5.41-2.56,13.61-.94,16.38-17.66-.2-13.29-12.54,3.31-19.06,21.99-2.67,23.33,10.24.85,18.01-4.94,24.49-12.01,5.77,17.85,6.86,37.56,3.11,55.94ZM274.27,230.67c.5,2.35-5.93,5.49-6.98,4.48-2.28-2.17,6.11-8.65,6.98-4.48Z"/>
      <path class="cls-4" d="M357.28,128.16c7.21.42,53.04,5.15,55.54,8.96.87,1.33.39,3.48.46,5.04-8.31-.15-16.35-2.8-24.63-3.87-11.76-1.52-24.51-2.43-36.37-3.13-3.11-.18-8.34-1-10.5-1h-54c-1.9,0-6.49.87-9.5,1-25.79,1.11-51.37,3.24-77,6s-49.39,6.14-74,11c-6.02,1.19-12.12,1.44-18.43,3.07-5.11,1.33-20.33,7.93-23.91,6.78-3.77-1.21-.56-4.79,1.31-6.38,5.71-4.84,32.52-10.03,41.02-11.48,24.25-4.13,49.54-6.26,74-9,26.75-3,52.99-5.91,80-7,24.74-.99,51.37-1.45,76,0Z"/>
      <path class="cls-4" d="M207.37,146.65c-.42-4.82-3.09-4.07-6.09-1.49-1.32,9.52-6.47,25.39-9.5,35-8.6,27.25-27.1,50.22-40.02,75.98-8.16,16.26-18.31,37.77-23.48,55.02-1.77,5.89-.54,8.05-1,12,8.43,4.21,15.06-9.46,18.81-15.69,19.79-32.92,32.48-71.94,46.46-107.54,4.2-10.71,6.95-18.23,9.73-29.77,1.39-5.78,5.53-18.36,5.09-23.51ZM155.14,274.52c-4.46,9.62-9.5,20.22-15.85,28.64,6.93-20.68,15.76-41.93,27.98-60-2.58,10.64-7.51,21.4-12.13,31.36Z"/>
      <path class="cls-3" d="M357.28,128.16c-24.63-1.45-51.26-.99-76,0,.84-2.96,1.58-6.11,2.19-9.38.23-1.2.44-2.42.63-3.65.23-1.53.44-3.07.62-4.63.32-2.63.54-5.3.68-7.99,0-.07,0-.15,0-.23.47-9.11-.05-18.43-1.83-26.93-.01,0,0-.01,0-.01-.41-1.96-.89-3.88-1.44-5.75-.55-1.87-1.17-3.69-1.86-5.43-1.02-2.56-5.39-10.46-7-13-1.73-2.73-3.6-4.64-6-7-.67-.66-1.28-1.39-2-2-.81-.68-1.55-1.65-2-2-2.77-2.14-10.75-6.71-14-8-14.43-5.72-32.7-4.88-48.01-5.01v108.01c-24.45,2.74-49.74,4.87-73.99,9l.04-91.54c-.99-5.32-1.09-10.87-2.99-16.01-5.89-15.93-25.39-17.77-40.06-17.44v-10.02c54.95.9,110.07-1.17,165.01.01,7.63.16,15.29.26,22.9.71,7.67.46,15.23,1.98,22.65,3.92,2.38.63,4.75,1.3,7.11,1.99,7.16,2.1,14.39,4.99,20.96,8.51,3.31,1.77,6.48,3.8,9.58,5.91,1.37.93,2.99,1.79,4.09,3.03,1.04,1.17,2.18,2.21,3.31,3.31,4.91,4.82,9.2,10.27,12.72,16.18.57.94,1.11,1.9,1.63,2.87,6.21,11.49,9.6,24.45,9.91,37.5.27,12.01-2.08,24.05-6.86,35.07Z"/>
      <path class="cls-4" d="M564.27,231.17c-1.07-1.12-18.07,8.07-20.98,8.99-1.45-1.84,7.73-17.41,5.93-19.93-5.82-.45-15.35-1.01-20.64,1.73-6.5,3.37-14.84,16.49-7.83,22.23,4.08,3.34,6.69.87,10.46-.61,1.43-.56,2.91-.66,2.06,1.07-.79,1.61-24.23,13.24-27.99,15.51-5.5,3.32-23.28,14.14-24.75,19.74-3.74,14.26,17.02,14.95,26.29,14.3,1.23-.09,8.07-.86,8.46-1.04.08-.03-.15-1.26.35-1.61,8.55-6.12,11.87-10.84,16.12-20.42,5.77-13.03,3.49-21.14,17.21-28.79,2.34-1.31,19.47-6.85,15.31-11.17ZM512.28,286.16c-6.35,3.5-15.28,4.66-21.36-.13-8.57-6.75,6.63-15.35,11.84-18.94,1.32-.91,3.2-.72,3.52-.93.09-.06-.17-1.44.71-2,3.11-1.97,21.28-12.78,23.29-10.99-3.1,10.31-8.11,27.54-18,32.99ZM525.22,239.72c-4.28-3.04,5.84-14.58,9.78-15.4,12.03-2.49-3.88,19.59-9.78,15.4Z"/>
      <path class="cls-4" d="M643.15,182.28c2.35,3.81-2.49,4.26-4.38,5.86s-2.81,2.95-4.02,4.98c-3.13,5.25-13.12,28.05-14.37,33.64-.57,2.56,4.41.9,6.32,2.3,5.15,3.76-8.13,4.17-9.17,5.34s-4.67,13.37-6.07,16.42c-4.48,9.78-9.43,21.86-22.43,21.08-5.67-.34-15.75-7.09-8.1-8.61,2.87-.57,7.84,7.99,15.77-1.23,3.85-4.47,10.8-20.55,12.55-26.45.84-2.83-8.32-.65-6.96-3.95s6.69-2.76,8.96-4.05c4.58-2.61,10.9-37.63,24.33-44.66,1.61-.84,6.49-2.44,7.57-.68Z"/>
      <path class="cls-4" d="M372.88,218.2c-1.82.06-6.1,3.3-5.62.45,1.83-5.6,18.69-35.76,17.96-38.92-.88-3.8-5.69-.7-7.37,1.5-1.6,2.08-2.89,4.39-4.11,6.71-4.35,8.27-7.98,16.96-11.88,25.45-.24.51-.49,1.04-.91,1.43-.41.39-1.05.61-1.57.38.06,3-.9,5.89-2.1,8.6-1.9,4.26-4.15,8.35-6.17,12.55-.85,1.76-1.69,3.55-2.29,5.42-.38,1.15-.82,2.56-.47,3.77,1.04,3.59,4.53-.5,6.25-.19,2.52.45,3.19,3.41,9.18,2.85,2.58-.24,4.23-1.7,6.16-3.25,1.25-1,2.73-1.89,4.32-1.78.19-4.69,4.01-8.21,4.78-12.74.88-5.23.59-12.44-6.16-12.23ZM370.28,233.16c-1.69,3.7-4.69,11.69-10.33,9.9-6.98-2.24,1.95-13.21,4.84-15.93.83-.78,2.14-.71,2.49-.97.17-.13-.46-2.54,2.71-2.83,6.85-.63,1.38,7.44.29,9.83Z"/>
      <path class="cls-3" d="M652.28,408.16v44h-10v-42.5c0-2.19,8.13-1.43,10-1.5Z"/>
      <path class="cls-4" d="M422.28,241.16c3.83-1.67,22.03-11.8,22.91-14.6,2.14-6.81-12.29.14-13.9-1.41-3.25-3.13,6.86-5.69,8.6-5.88,27.18-3.03,7.67,16.78-4.6,20.9l14.71,2.77c7.7,7.01-5.04,2.4-9.33,2.32-4.78-.09-11.14,1.88-16.39.9-.18-.64-1.26-1.98-2-5Z"/>
      <path class="cls-4" d="M579.28,242.15c2.46,2.65,14.17-8.56,15.98-9.51s1.92-.15,3.02,1.04c-3.62,7.92-15.29,17.35-24.34,14.31-7.35-2.47,2.53-22.95,7.82-21.84,4.85,1.02-4.78,13.51-2.47,16Z"/>
      <path class="cls-4" d="M399.28,242.15c5.15,2.83,17.05-11.99,18.99-9.99,3.81,3.92-15.24,20.53-24.29,15.8-6.68-3.49,3.48-21.06,6.82-21.8,6.34-1.41-3.29,14.23-1.52,15.99Z"/>
      <path class="cls-4" d="M406.96,211.3c8.9-2.62,1.69,12.44-4.17,11.85-3.73-1.03,1.79-11.15,4.17-11.85Z"/>
      <path class="cls-4" d="M581.28,222.15c-1-.95,3.42-10.18,5.68-10.85,8.59-2.54,2.53,14.19-5.68,10.85Z"/>
      <path class="cls-4" d="M228.28,188.16c1.68-3.35,2.37-9.71,7.33-9.72s.87,7.5-.33,10.72c-4.68,12.57-11.59,24.25-16.98,36.51,4.37-1.79,12.19-9.52,16.04-3.07,4.06,6.8-5.73,18.98,6.62,13.74,1.43-.61,11.53-7.76,7.82-1.18-1.52,2.7-12.2,8.47-15.27,8.82-10.61,1.2-4.34-11.14-5.23-17.32-.06-.95-1.7-.6-2.35-.35-1.32.5-9.65,9.08-11.17,10.83-3.92,4.52-5.72,12.38-12.48,11.01-.19-1.41.07-2.68.47-4.02,4.2-14.26,18.38-41.75,25.53-55.97Z"/>
      <path class="cls-4" d="M290.28,233.16c-4.64,5.05-20.56,16.45-26.03,8.53-3.36-4.89,3.75-2.44,5.41-2.56,13.61-.94,16.38-17.66-.2-13.29-12.54,3.31-19.06,21.99-2.67,23.33,10.24.85,18.01-4.94,24.49-12.01-.36-1.12-.31-2.15-1-4ZM274.27,230.67c.5,2.35-5.93,5.49-6.98,4.48-2.28-2.17,6.11-8.65,6.98-4.48Z"/>
      <path class="cls-1" d="M275.28,207.16c2.29-3.55,10.33.16,11.9,2.6,1.7,2.67,2.24,10.53-2.9,9.4-1.47-2.5-7.04-10.01-9-12Z"/>
      <path class="cls-2" d="M167.27,243.16c-2.58,10.64-7.51,21.4-12.13,31.36-4.46,9.62-9.5,20.22-15.85,28.64,6.93-20.68,15.76-41.93,27.98-60Z"/>
      <path class="cls-3" d="M284.28,13.16c0,7.64-5.93,2.06-4,0,.22-.24,3,.15,4,0Z"/>
      <path class="cls-2" d="M568.78,368.16c.65.33.65.67,0,1v-1Z"/>
      <path class="cls-2" d="M512.28,286.16c-6.35,3.5-15.28,4.66-21.36-.13-8.57-6.75,6.63-15.35,11.84-18.94,1.32-.91,3.2-.72,3.52-.93l6,20Z"/>
      <g>
        <path class="cls-3" d="M758.29,217.15h-98.89s-7.12.01-7.12.01l-6,19-1,2v3s1-5,1,3,0-7.71,1.95,2.74c.13-1.5.84-2.32,3.05.26,1.19,1.38,2.05,2.17,2.69,2.56-.62.21-1.2.36-1.69.44v89c.11,1.54-.52,2.02-1.6,2.87-7.1,5.65-29.7,10.42-38.91,11.12-23.74,1.78-44.62-3.43-64.49-15.99-11.2-7.08-18.59-17.61-25.17-29.33-2.63-4.68-4.85-9.68-6.83-14.67-.39.18-7.23.95-8.46,1.04-9.27.65-30.03-.04-26.29-14.3,1.47-5.6,19.25-16.42,24.75-19.74-2.02-13.05-4.14-26.26-5.04-39.46-4.26-62.55,2.47-184.24,81.01-199.07,12.25-2.32,32.93-2.53,45.03.53,41.12,10.39,71.35,49.94,85.75,87.75.87,2.31,2.96,11.39,3.48,12.01,1.86,2.2,9.77.74,9.77.24V.16c-1.91.38-9.1-.59-9.9.1-.38.33-2.02,7.58-2.92,9.58-14.03,30.93-43.1,5.39-65.39-1.97-9.2-3.03-17.33-4.3-26.79-5.71-1.57-.24-1.87,0-1.99,0-.99-.12-2.03.1-3.01,0-135.99-13.67-224.19,111.21-193,239,3.83-1.67,22.03-11.8,22.91-14.6,2.13-6.81-12.3.14-13.91-1.41-3.24-3.12,6.86-5.68,8.61-5.88,27.18-3.02,7.66,16.78-4.6,20.9l14.71,2.77c7.71,7-5.04,2.4-9.33,2.32-4.77-.09-11.14,1.88-16.39.9,1.83,6.37,3.95,12.65,6.39,18.81,4.24,10.69,9.45,21.01,15.69,30.67,6.05,9.36,13.06,18.09,20.95,25.96,7.95,7.93,16.76,14.98,26.2,21.04,9.49,6.09,19.41,11.23,29.89,15.36,13.62,5.37,27.84,9.22,42.31,11.47,15.16,2.36,30.55,3.19,45.87,2.28,14.75-.87,29.28-3.51,43.7-6.59,23.73-5.07,46.81-11.88,68.51-22.99,2.07-26.52-1.06-54.14.45-80.55.89-15.57,3.44-31.56,21.8-34.2,9.49-1.36,13.69,3.47,12.25-10.27ZM673.3,233.66c-.62,4.86-11.12,12.59-17.74,15.45.17-1.15-.28-2.95-.28-2.95,0,0-5,1,1-2,2.02-1.01,2.79-1.79,2.93-2.38.46-.26.93-.52,1.39-.8,3.02-1.87,8.48-7.92,10.33-8.67,1.28-.51,2.63-.75,2.37,1.35Z"/>
        <path class="cls-3" d="M151.76,256.14c12.92-25.76,31.42-48.73,40.02-75.98,3.03-9.61,8.18-25.48,9.5-35,.17-1.26-.12-2.7,0-4-25.12,2.7-49.39,6.14-74,11l1,159c5.17-17.25,15.32-38.76,23.48-55.02Z"/>
        <path class="cls-3" d="M154.31,434.15c.61-1.57,3-2.03,4.36-2.66,6.89-3.19,7.25-12.56,3.28-18.14-1.94-2.72-4.86-4.65-8.17-5.19-7.39-1.23-17.75.91-25.5,0v44s10,0,10,0v-13.96c0-1.35,0-2.69,0-4.04,0,.64,3.19.85,3.67.88,1.41.11,2.86.33,4.04,1.16,1.22.86,1.95,2.25,2.65,3.57,1.19,2.26,2.43,4.5,3.71,6.71,1.06,1.82,1.95,4.22,3.92,5.18,2.81,1.36,7.83.06,11.01.48.38.05-1.33-3.73-1.47-4.01-.81-1.62-1.69-3.2-2.66-4.73-1.19-1.9-2.51-3.72-3.93-5.45-1.08-1.32-2.88-4.13-4.91-3.8ZM138.27,427.17v-11.02c5.77.52,17.56-2.68,16.01,6.47-.98,5.78-11.67,4.47-16.01,4.55Z"/>
        <path class="cls-3" d="M598.27,436.16h9.01c2.28,7.88-6.26,8.94-12.45,7.93-14.52-2.37-10.19-35.76,8.21-27.2,2.88,1.34,2.75,5.08,3.9,5.33,2.55.57,9.72-.72,9.19-4.34-2.19-14.84-36.03-15.25-39.61,6.01-4.61,27.39,19.89,36.45,40.76,23.26v-19h-19v8.01Z"/>
        <path class="cls-3" d="M344.75,437.19l-4.45-3.53c13.19-4.08,13.41-23.19-.52-25.5-7.39-1.23-17.75.91-25.5,0v44h10v-18c3-.09,5.35,1.04,7.56,2.94,3.09,2.66,8.85,14.43,9.6,14.9,1.58.99,9.29-.37,11.84.15l-8.53-14.96ZM323.27,427.17v-11.02c3.59.5,13.37-1.16,15.77,1.25.96.96,1.45,3.84,1.27,5.21-.79,5.91-12.74,4.44-17.04,4.56Z"/>
        <path class="cls-3" d="M289.19,423.75c-1.56-11.44-13.29-17.78-24.15-16.33-24.75,3.32-24.86,42.1-1,45.48,19.49,2.75,27.57-11.42,25.15-29.15ZM264.06,443.9c-10.25-3.72-9.91-25.3.95-27.51,21.16-4.29,18.13,34.43-.95,27.51Z"/>
        <path class="cls-3" d="M79.04,407.43c-25.61,3.49-24.39,48.77,6.63,45.62,27.2-2.77,24.89-49.92-6.63-45.62ZM79.05,443.9c-11.15-4.03-9.98-25.26-.06-27.52,22.08-5.05,18.67,34.24.06,27.52Z"/>
        <path class="cls-3" d="M823.33,437.61c-1-14.39-21.93-12.45-23.91-15.59-4.06-6.42,8.65-7.63,11.64-4.64.94.94.59,3.5,1.88,3.82,2.39.59,6.62-.5,9.34-.05.27-19.54-36.12-18.57-32.95,1.44,1.84,11.58,18.73,9.86,22.97,14.03,5.28,5.19-5.44,11.5-12.1,6.11-1.81-1.47-2.76-5.22-3.08-5.42-1.3-.82-9.76-1-9.82,2.27-.29,16.26,37.61,20.68,36.03-1.97Z"/>
        <polygon class="cls-3" points="499.28 433.16 520.28 433.16 520.28 425.16 499.28 425.16 499.28 416.16 522.28 416.16 522.28 408.16 489.28 408.16 489.28 452.16 523.28 452.16 523.28 444.16 499.28 444.16 499.28 433.16"/>
        <path class="cls-3" d="M399.14,408.3h-10.72c-5.38,14.62-10.76,29.23-16.14,43.85l9.86-.13c1.01-2.75,2.03-5.49,3.04-8.24,5.48-.22,10.96-.44,16.44-.66,1.55,3.01,3.11,6.03,4.66,9.04,3,0,6,0,9-.01l-16.14-43.85ZM389.28,434.16c1.5-4.67,3-9.33,4.5-14l4.5,13.99c-3,0-6,0-9,.01Z"/>
        <path class="cls-3" d="M212.78,408.16h-23.5v44h10s0-16,0-16h5.69c3.01,0,6.27.49,9.2-.37,1.76-.51,3.35-1.52,4.76-2.7,1.96-1.64,3.65-3.67,4.59-6.05,2.46-6.24-.48-15.18-6.76-18.02-1.25-.57-2.61-.86-3.98-.86ZM199.27,428.17v-12.02c20.22-3.21,20.17,15.24,0,12.02Z"/>
        <path class="cls-3" d="M18.79,416.1c8.8-.62,8.97,6.91,10.12,7.14,2.35.47,6.74-1.89,9.34-2.11-2.49-16.51-26.38-18.52-34.82-5.31-3.56,5.57-3.81,13.37-3.15,19.83,2.2,21.6,34.19,24.28,37.95,2.56-2.68-.45-6.72-2.85-9.37-2.12-.87.24-.82,5.59-4.84,7.32-16.83,7.22-18.88-26.33-5.24-27.3Z"/>
        <path class="cls-3" d="M678.28,409.66v42.5h10v-18h17.5c1.93,0,1.59-6.38,1.5-8h-17.5c-2.18,0-2.18-10,0-10h19.5v-8h-29.5c-.11,0-1.5,1.39-1.5,1.5Z"/>
        <path class="cls-3" d="M466.28,408.16h-36v8.01s13,0,13,0v36h10v-35c2.12-.79,12.54-.54,13.01-1,.35-.34-.25-6.53,0-8Z"/>
        <path class="cls-3" d="M731.28,408.16c.25,1.48-.35,7.66,0,8,.88.87,13.01-1.9,13.01,4.5v31.5h10v-36h12.01s0-8,0-8h-35Z"/>
      </g>
      <path class="cls-2" d="M370.28,233.16c-1.69,3.7-4.69,11.69-10.33,9.9-6.98-2.24,1.95-13.21,4.84-15.93.83-.78,2.14-.71,2.49-.97l3,7Z"/>
      <path class="cls-4" d="M647.77,243.16c.41.85,1.01,1.67,1.91,1.89.81.2,1.64-.13,2.41-.42,2.92-1.11,5.82-1.99,8.5-3.65,3.02-1.87,8.48-7.92,10.33-8.67,1.28-.51,2.63-.75,2.37,1.35-.74,5.79-15.5,15.66-21.02,16.5-11.95,1.82-13.39-6.03-11.3-15.8,2.26-10.51,12.88-24.59,14.31-33.7.49-3.05-3.7-.51-5.52-.48-2.11.05-5.65-.76-4.48-3.51,1.35-3.17,9.32-.1,12.57-2.43,4.17-3.02,5.38-20.86,14.34-16.99,1.59,2.19-6.07,14.33-5.92,17.9,1.75,1.55,16.68-3.35,15,4.01h-15.5c-3.1,0-8.05,14.68-9.5,18-2.5,5.73-5.2,11.59-6.64,17.7-.18.75-.35,1.33-.87,1.94-.46.53-.99,1.01-1.33,1.62-.76,1.35-.41,3.06.22,4.48.04.09.08.18.12.27Z"/>
    </g>
  </g>
</svg>